<?xml version="1.0" standalone="no"?>
<!DOCTYPE svg PUBLIC "-//W3C//DTD SVG 20010904//EN"
 "http://www.w3.org/TR/2001/REC-SVG-20010904/DTD/svg10.dtd">
<svg version="1.0" xmlns="http://www.w3.org/2000/svg"
 width="720.000000pt" height="720.000000pt" viewBox="0 0 720.000000 720.000000"
 preserveAspectRatio="xMidYMid meet">
<metadata>
Created by potrace 1.11, written by Peter Selinger 2001-2013
</metadata>
<g transform="translate(0.000000,720.000000) scale(0.100000,-0.100000)"
fill="#000000" stroke="none">
<path d="M2824 7162 c-1 -18 -13 -121 -19 -162 -4 -25 -12 -81 -21 -150 -3
-19 -7 -46 -9 -60 -3 -14 -12 -79 -20 -145 -9 -66 -18 -131 -20 -145 -6 -36
-16 -110 -21 -145 -2 -16 -6 -52 -10 -80 -5 -43 -15 -61 -74 -130 -37 -44 -82
-95 -99 -113 -60 -62 -142 -203 -201 -347 -49 -118 -103 -365 -117 -530 -11
-139 -4 -499 11 -524 2 -3 6 -28 10 -56 3 -27 13 -79 21 -115 8 -36 17 -76 21
-90 17 -76 73 -221 121 -315 120 -234 289 -372 463 -376 25 -1 47 0 50 1 3 1
18 3 34 5 97 13 254 138 340 272 147 229 252 613 237 868 -1 17 -2 68 -2 115
-1 218 -16 346 -65 550 -20 80 -79 258 -99 297 -8 15 -15 31 -15 35 0 4 -22
45 -50 91 -57 98 -150 196 -226 239 -46 25 -58 39 -83 91 -16 34 -32 87 -35
117 -3 30 -14 118 -25 195 -11 77 -23 163 -26 190 -4 28 -8 61 -11 75 -4 25
-14 96 -19 135 -19 158 -29 216 -34 219 -4 3 -7 -3 -7 -12z"/>
<path d="M4439 7099 c-1 -20 -5 -44 -39 -209 -16 -80 -32 -161 -35 -180 -3
-19 -8 -42 -10 -50 -2 -8 -7 -28 -10 -45 -2 -16 -7 -41 -10 -55 -3 -14 -7 -36
-10 -50 -3 -14 -7 -36 -10 -50 -3 -14 -7 -36 -10 -50 -2 -14 -9 -47 -15 -75
-5 -27 -12 -61 -14 -75 -28 -152 -37 -180 -58 -180 -13 0 -112 -83 -153 -129
-90 -101 -165 -281 -226 -536 -23 -99 -23 -100 -34 -165 -4 -25 -9 -54 -11
-65 -15 -81 -22 -158 -31 -330 -10 -202 -8 -265 14 -370 3 -16 7 -39 8 -51 4
-33 44 -183 66 -249 82 -242 216 -435 360 -522 363 -217 752 199 844 902 14
112 16 147 17 295 1 193 -9 291 -43 463 -58 282 -176 538 -309 665 -35 34
-140 165 -141 176 0 6 -2 20 -4 31 -1 11 -5 43 -9 70 -4 28 -8 61 -11 75 -6
35 -26 189 -30 225 -2 17 -6 44 -9 60 -5 31 -12 78 -22 155 -3 25 -7 54 -9 65
-1 11 -8 58 -14 105 -19 132 -23 155 -27 159 -2 2 -4 -2 -5 -10z"/>
<path d="M1020 5302 c-57 -36 -110 -124 -149 -247 -28 -88 -33 -107 -45 -190
-3 -22 -9 -56 -12 -75 -3 -19 -7 -109 -9 -200 -4 -234 28 -451 85 -584 14 -35
19 -72 21 -160 1 -63 5 -134 9 -158 5 -24 11 -60 14 -80 28 -178 115 -413 224
-603 62 -107 175 -256 253 -334 381 -380 764 -330 865 114 27 117 24 333 -6
485 -22 111 -75 288 -107 360 -63 141 -164 322 -213 383 -170 212 -267 300
-409 372 -30 15 -77 34 -105 42 -58 18 -176 24 -218 13 -26 -8 -27 -7 -52 68
-48 150 -56 184 -80 355 -17 114 -13 360 6 448 5 24 -27 20 -72 -9z"/>
<path d="M6108 5325 c-3 -4 -1 -25 5 -48 17 -73 12 -455 -8 -487 -2 -3 -6 -26
-10 -50 -9 -63 -30 -142 -62 -233 -26 -75 -28 -78 -52 -71 -41 12 -153 9 -207
-6 -333 -92 -686 -544 -817 -1045 -15 -55 -29 -116 -32 -135 -2 -19 -9 -62
-14 -95 -11 -74 -6 -308 8 -353 5 -18 10 -36 11 -40 4 -31 25 -91 51 -139 167
-325 552 -264 895 142 163 193 310 492 374 760 25 106 30 149 37 300 4 102 10
143 28 190 58 152 84 341 79 570 -2 94 -5 186 -8 205 -20 130 -31 184 -53 255
-45 143 -102 233 -168 265 -45 22 -49 23 -57 15z"/>
<path d="M3406 3184 c-153 -33 -294 -109 -368 -197 -108 -130 -218 -327 -306
-552 -42 -107 -74 -167 -119 -222 -110 -138 -241 -233 -377 -273 -315 -95
-543 -234 -673 -410 -211 -287 -245 -674 -87 -991 94 -188 236 -330 414 -412
193 -88 217 -96 319 -101 129 -6 334 64 512 176 189 119 418 223 529 242 19 3
55 10 80 15 49 10 326 8 375 -3 249 -56 435 -136 686 -296 148 -95 209 -124
306 -146 57 -13 234 -12 296 2 200 45 324 111 458 244 119 117 203 262 244
420 44 170 40 376 -12 535 -67 206 -206 391 -375 498 -15 9 -102 40 -193 67
-91 27 -192 63 -224 80 -154 77 -305 227 -380 377 -28 56 -121 285 -121 297 0
3 -8 25 -19 49 -10 23 -34 80 -52 127 -38 99 -67 144 -141 221 -117 123 -238
195 -413 245 -74 22 -275 26 -359 8z"/>
</g>
</svg>
